HIERARCHY
ROOT Hips
{
	OFFSET 0.000000 0.000000 0.000000
	CHANNELS 6 Xposition Yposition Zposition Yrotation Xrotation Zrotation
	JOINT Chest
	{
		OFFSET 0.000000 -0.009281 11.569106
		CHANNELS 3 Yrotation Xrotation Zrotation
		JOINT Chest2
		{
			OFFSET -0.000000 0.016865 9.269641
			CHANNELS 3 Yrotation Xrotation Zrotation
			JOINT Chest3
			{
				OFFSET -0.000000 0.000001 8.374491
				CHANNELS 3 Yrotation Xrotation Zrotation
				JOINT Chest4
				{
					OFFSET -0.000000 0.000001 8.374493
					CHANNELS 3 Yrotation Xrotation Zrotation
					JOINT Neck
					{
						OFFSET -0.000000 0.000002 12.152554
						CHANNELS 3 Yrotation Xrotation Zrotation
						JOINT Head
						{
							OFFSET -0.000000 0.040101 7.802319
							CHANNELS 3 Yrotation Xrotation Zrotation
							End Site
							{
								OFFSET -0.000000 0.020947 14.853096
							}
						}
					}
					JOINT RightCollar
					{
						OFFSET 2.894404 0.000001 6.791374
						CHANNELS 3 Yrotation Xrotation Zrotation
						JOINT RightShoulder
						{
							OFFSET 13.574684 0.000001 0.000000
							CHANNELS 3 Yrotation Xrotation Zrotation
							JOINT RightElbow
							{
								OFFSET 23.923903 0.000002 0.000000
								CHANNELS 3 Yrotation Xrotation Zrotation
								JOINT RightWrist
								{
									OFFSET 19.846718 0.012767 0.000000
									CHANNELS 3 Yrotation Xrotation Zrotation
									End Site
									{
										OFFSET 14.973145 0.000001 0.000000
									}
								}
							}
						}
					}
					JOINT LeftCollar
					{
						OFFSET -2.894404 0.000001 6.791374
						CHANNELS 3 Yrotation Xrotation Zrotation
						JOINT LeftShoulder
						{
							OFFSET -13.574684 -0.000001 0.000000
							CHANNELS 3 Yrotation Xrotation Zrotation
							JOINT LeftElbow
							{
								OFFSET -23.923903 -0.000002 0.000000
								CHANNELS 3 Yrotation Xrotation Zrotation
								JOINT LeftWrist
								{
									OFFSET -19.846718 0.012763 0.000000
									CHANNELS 3 Yrotation Xrotation Zrotation
									End Site
									{
										OFFSET -14.973145 -0.000001 0.000000
									}
								}
							}
						}
					}
				}
			}
		}
	}
	JOINT RightHip
	{
		OFFSET 9.469263 0.004643 0.045487
		CHANNELS 3 Yrotation Xrotation Zrotation
		JOINT RightKnee
		{
			OFFSET 0.000000 0.002661 -40.478676
			CHANNELS 3 Yrotation Xrotation Zrotation
			JOINT RightAnkle
			{
				OFFSET 0.000000 0.049106 -35.224068
				CHANNELS 3 Yrotation Xrotation Zrotation
				JOINT RightToe
				{
					OFFSET -0.000001 12.539529 -6.151390
					CHANNELS 3 Yrotation Xrotation Zrotation
					End Site
					{
						OFFSET -0.000001 5.044994 -1.291870
					}
				}
			}
		}
	}
	JOINT LeftHip
	{
		OFFSET -9.469263 0.004641 0.045487
		CHANNELS 3 Yrotation Xrotation Zrotation
		JOINT LeftKnee
		{
			OFFSET 0.000000 0.002661 -40.478676
			CHANNELS 3 Yrotation Xrotation Zrotation
			JOINT LeftAnkle
			{
				OFFSET 0.000000 0.049106 -35.224068
				CHANNELS 3 Yrotation Xrotation Zrotation
				JOINT LeftToe
				{
					OFFSET -0.000001 12.539529 -6.151390
					CHANNELS 3 Yrotation Xrotation Zrotation
					End Site
					{
						OFFSET -0.000001 5.044994 -1.291870
					}
				}
			}
		}
	}
}
MOTION
Frames: 14
Frame Time: 0.016667
9.496465 6.746686 83.152161 -5.399894 -1.277353 -106.843427 -0.942548 -3.046140 2.378440 -0.409116 -1.357022 1.060785 -0.409116 -1.357022 1.060788 -0.304467 -1.018481 0.794647 -0.351535 -24.245695 4.082110 0.389803 -8.908166 7.235984 10.078164 1.680287 -6.681491 55.103712 33.263189 18.955715 39.494425 20.750405 41.049478 19.060341 21.621522 -12.793002 -9.379084 -4.176814 -6.740961 -58.701023 40.040854 -25.391478 -36.994084 30.165582 -46.005391 14.746828 62.833840 -20.787455 -0.841391 -4.997057 -1.142416 2.159650 -5.019604 -9.732034 -1.616980 4.163583 1.230572 0.008121 -0.021076 -0.006329 -0.966334 -7.060105 2.200700 0.772991 -1.756268 -0.537951 -0.490530 3.711168 0.727765 0.000389 0.003535 -0.000712 
9.504907 6.732494 83.154121 -5.366880 -1.257481 -106.780684 -0.970935 -3.066657 2.358798 -0.420486 -1.365486 1.051957 -0.420486 -1.365486 1.051955 -0.313000 -1.024843 0.787992 -0.349069 -24.183308 4.182390 0.422313 -8.796357 7.417696 10.043718 1.855076 -6.675317 54.718432 33.341077 18.892626 39.589463 20.637024 41.031566 19.109210 21.589022 -12.840394 -9.344012 -4.069994 -6.815090 -58.283322 40.078713 -25.419297 -36.378595 29.848261 -45.870184 14.325550 61.968981 -21.562824 -0.833560 -5.034293 -1.220869 2.151551 -4.903962 -9.771299 -1.597711 4.133251 1.266282 -0.014311 -0.029772 -0.005454 -0.958795 -7.040752 2.215245 0.772516 -1.720703 -0.586508 -0.500018 3.688611 0.702715 0.000559 0.008303 -0.001367 
9.519827 6.718087 83.156586 -5.327713 -1.234982 -106.717847 -1.009134 -3.078972 2.345052 -0.436102 -1.370864 1.045485 -0.436102 -1.370865 1.045486 -0.324716 -1.028899 0.783099 -0.320674 -24.127262 4.234640 0.489142 -8.696059 7.519685 10.023888 2.071428 -6.704841 54.254160 33.337218 18.759907 39.651290 20.542369 41.012291 19.166850 21.547720 -12.883293 -9.298213 -3.971133 -6.901959 -57.906385 40.056280 -25.431088 -35.783621 29.597443 -45.832912 13.848241 61.035691 -22.307478 -0.829700 -5.074976 -1.308351 2.141688 -4.777000 -9.786403 -1.564860 4.101398 1.309609 -0.040644 -0.036866 -0.005628 -0.954305 -7.022640 2.219802 0.777002 -1.675995 -0.606545 -0.525049 3.655949 0.655003 0.009398 0.019259 -0.001248 
9.538178 6.703739 83.158806 -5.279849 -1.208901 -106.649996 -1.051834 -3.082015 2.336209 -0.454492 -1.372791 1.041041 -0.454492 -1.372791 1.041043 -0.338515 -1.030372 0.779724 -0.269744 -24.079794 4.237411 0.583639 -8.611110 7.538452 10.010639 2.246208 -6.742734 53.775254 33.343194 18.612527 39.666440 20.458899 41.013531 19.243325 21.465874 -12.933811 -9.261801 -3.910139 -7.017902 -57.592797 40.056539 -25.495734 -35.157784 29.328071 -45.782174 13.485484 60.059404 -22.934064 -0.825259 -5.117015 -1.407876 2.128944 -4.634842 -9.781855 -1.525809 4.065692 1.338806 -0.066661 -0.042838 -0.005782 -0.946932 -7.000449 2.198608 0.774616 -1.624174 -0.593635 -0.557350 3.616314 0.600345 0.023987 0.032059 -0.000189 
9.557362 6.692934 83.159554 -5.221665 -1.180726 -106.571462 -1.090874 -3.075081 2.334354 -0.471019 -1.370617 1.039513 -0.471019 -1.370617 1.039513 -0.350916 -1.028769 0.778541 -0.203963 -24.041649 4.183870 0.690201 -8.542070 7.459746 9.983141 2.422230 -6.788440 53.281763 33.393287 18.412525 39.652192 20.351585 41.038655 19.384482 21.313074 -12.979117 -9.247604 -3.879408 -7.132595 -57.344035 40.076336 -25.658126 -34.506959 29.014377 -45.600453 13.214535 59.121113 -23.497063 -0.819619 -5.151125 -1.511580 2.111420 -4.488611 -9.774260 -1.482211 4.028213 1.360518 -0.086874 -0.047707 -0.006120 -0.939571 -6.972891 2.163673 0.770252 -1.557955 -0.583114 -0.589808 3.567347 0.544430 0.039176 0.042210 0.000437 
9.578490 6.681427 83.158478 -5.161363 -1.153229 -106.464351 -1.114859 -3.058156 2.327378 -0.481720 -1.363036 1.036122 -0.481720 -1.363036 1.036126 -0.358962 -1.023098 0.775983 -0.136389 -24.017949 4.078290 0.786150 -8.497768 7.287790 9.943840 2.548423 -6.818122 52.745924 33.584566 18.184740 39.674127 20.230850 41.080801 19.598062 21.183418 -12.995690 -9.252559 -3.785284 -7.178229 -57.117956 39.996908 -25.814893 -33.867640 28.648423 -45.262137 12.967810 58.254089 -24.044894 -0.802601 -5.199820 -1.620796 2.082857 -4.318760 -9.803619 -1.436179 3.985143 1.395861 -0.100249 -0.052934 -0.004778 -0.922185 -6.943908 2.113591 0.756580 -1.488758 -0.583333 -0.621920 3.518125 0.488600 0.054425 0.047279 0.001057 
9.604605 6.670470 83.156189 -5.100668 -1.123392 -106.316375 -1.128527 -3.043260 2.308808 -0.487326 -1.355552 1.028170 -0.487326 -1.355552 1.028171 -0.363197 -1.017489 0.770012 -0.067075 -24.000245 3.920231 0.871687 -8.462545 7.021927 9.908818 2.676397 -6.810161 52.139110 33.916360 17.904385 39.753798 20.172371 41.157443 19.964187 21.034228 -13.000930 -9.268682 -3.635609 -7.202002 -56.862206 39.825897 -25.886050 -33.277788 28.205879 -44.824452 12.860585 57.447300 -24.397793 -0.782850 -5.269742 -1.746460 2.053761 -4.121308 -9.873995 -1.388149 3.941087 1.437336 -0.110515 -0.060830 -0.003683 -0.902148 -6.907654 2.060822 0.740793 -1.430096 -0.603730 -0.656595 3.473412 0.421028 0.070432 0.049864 0.000446 
9.634106 6.662823 83.154015 -5.045888 -1.087955 -106.126653 -1.138356 -3.036141 2.274641 -0.490131 -1.352093 1.012518 -0.490131 -1.352093 1.012520 -0.365343 -1.014886 0.758271 0.002784 -23.984971 3.717985 0.946890 -8.430109 6.676822 9.861401 2.836032 -6.812062 51.574601 34.280682 17.634269 39.820088 20.235687 41.305023 20.399495 20.785215 -13.022949 -9.263944 -3.519628 -7.259776 -56.568774 39.616207 -25.860793 -32.726558 27.655661 -44.324834 12.830913 56.720469 -24.537137 -0.778125 -5.350162 -1.876627 2.041666 -3.923982 -9.977321 -1.340188 3.904091 1.494617 -0.119758 -0.067337 -0.002828 -0.887869 -6.869137 2.020489 0.729421 -1.376173 -0.661914 -0.704058 3.426426 0.336170 0.093073 0.050981 -0.000012 
9.664559 6.663774 83.153214 -4.997647 -1.047372 -105.899365 -1.144402 -3.034229 2.222630 -0.489329 -1.351793 0.988172 -0.489329 -1.351793 0.988174 -0.364796 -1.014640 0.740014 0.072003 -23.975726 3.477888 1.011038 -8.407462 6.263441 9.791335 3.057646 -6.837630 51.071971 34.638837 17.377979 39.810003 20.405970 41.519494 20.806081 20.517782 -13.020276 -9.222168 -3.442537 -7.288229 -56.258246 39.281360 -25.753595 -32.250849 27.055096 -43.828060 12.615158 56.124972 -24.656819 -0.781732 -5.429375 -2.012015 2.035518 -3.747208 -10.111449 -1.291117 3.877238 1.529285 -0.125277 -0.068815 -0.003459 -0.889220 -6.835087 1.980359 0.732134 -1.313049 -0.742150 -0.760852 3.368488 0.240203 0.117629 0.050971 0.000191 
9.695891 6.668783 83.153404 -4.954652 -1.006562 -105.639203 -1.141508 -3.031382 2.158489 -0.486167 -1.350716 0.957642 -0.486167 -1.350716 0.957642 -0.362493 -1.013802 0.717124 0.146997 -23.979703 3.203724 1.076299 -8.408572 5.790098 9.723283 3.301754 -6.857638 50.618757 35.074282 17.121172 39.784025 20.666380 41.796714 21.109550 20.233807 -12.954802 -9.158827 -3.415955 -7.279842 -55.983246 38.771231 -25.620642 -31.829952 26.492332 -43.375362 12.036656 55.456891 -24.807047 -0.781138 -5.509598 -2.143899 2.018619 -3.584353 -10.262897 -1.240599 3.854516 1.537720 -0.122293 -0.066066 -0.002160 -0.888878 -6.805030 1.933796 0.734210 -1.243806 -0.845769 -0.822208 3.303285 0.141714 0.141878 0.048820 0.001097 
9.728098 6.676811 83.153389 -4.911215 -0.967535 -105.358899 -1.132415 -3.017766 2.093991 -0.480776 -1.344316 0.926788 -0.480776 -1.344316 0.926788 -0.358527 -1.008969 0.694001 0.235131 -24.002695 2.886140 1.153411 -8.444342 5.241758 9.672250 3.471562 -6.863656 50.263683 35.671691 16.929502 39.762510 21.023215 42.148548 21.281524 19.904191 -12.817038 -9.107340 -3.394169 -7.244607 -55.712777 38.098317 -25.427092 -31.422255 25.968156 -42.913361 10.958903 54.499401 -24.969876 -0.786574 -5.581324 -2.275490 2.015387 -3.445112 -10.410061 -1.202156 3.844594 1.552717 -0.111803 -0.061739 -0.000487 -0.885874 -6.771953 1.881158 0.730723 -1.177332 -0.960388 -0.879140 3.237376 0.042595 0.163289 0.045126 0.002119 
9.758466 6.690324 83.152618 -4.864720 -0.935579 -105.061246 -1.104935 -2.988758 2.030493 -0.471477 -1.332230 0.896310 -0.471476 -1.332230 0.896310 -0.351639 -0.999867 0.671175 0.335515 -24.046513 2.515621 1.238536 -8.517937 4.601142 9.619813 3.603582 -6.889785 50.016499 36.346111 16.811071 39.745571 21.546433 42.563676 21.384854 19.596972 -12.492028 -9.079964 -3.371313 -7.171915 -55.485568 37.357477 -25.207230 -30.953676 25.341165 -42.291548 9.259154 53.184057 -24.965859 -0.796614 -5.631431 -2.419196 2.033849 -3.351353 -10.536847 -1.175944 3.852297 1.543456 -0.098367 -0.051395 -0.001066 -0.871299 -6.724533 1.800562 0.720134 -1.124673 -1.057654 -0.929659 3.154646 -0.063498 0.178893 0.057148 0.002495 
9.780809 6.713691 83.151123 -4.821132 -0.897478 -104.751408 -1.073643 -2.947800 1.971351 -0.457333 -1.315339 0.866875 -0.457333 -1.315338 0.866877 -0.341120 -0.987156 0.649143 0.451043 -24.110489 2.078162 1.333671 -8.628034 3.843921 9.547384 3.758376 -6.902461 49.866487 37.084550 16.691280 39.769439 22.309285 43.040468 21.549879 19.488615 -11.901265 -9.076132 -3.279767 -7.043040 -55.218719 36.587865 -24.847964 -30.448000 24.442730 -41.387548 6.970173 51.376690 -24.472554 -0.824556 -5.641133 -2.537457 2.068771 -3.320188 -10.662235 -1.163871 3.879441 1.482124 -0.078313 -0.041183 -0.001011 -0.871683 -6.660729 1.687895 0.714050 -1.101074 -1.154604 -0.969559 3.100365 -0.150985 0.187788 0.051954 0.003846 
9.793873 6.745840 83.149353 -4.786178 -0.853242 -104.436584 -1.044823 -2.915447 1.928529 -0.439220 -1.301809 0.842748 -0.439221 -1.301809 0.842750 -0.327607 -0.976965 0.631099 0.585852 -24.185568 1.560156 1.443440 -8.757995 2.946972 9.459039 3.941151 -6.922607 49.880510 37.873136 16.628765 39.895504 23.363418 43.644082 21.753422 19.650996 -11.081354 -9.093054 -3.041695 -6.928974 -54.756496 35.856468 -24.175799 -29.886097 23.149833 -40.052284 3.918617 48.858184 -22.959210 -0.860706 -5.639058 -2.615810 2.103698 -3.324637 -10.812655 -1.160627 3.926256 1.389136 -0.051655 -0.035410 0.001164 -0.892101 -6.585846 1.560587 0.717082 -1.098735 -1.260182 -1.000198 3.076385 -0.221528 0.190765 0.020408 0.005266 
